<svg xmlns="http://www.w3.org/2000/svg" width="1400" height="420" viewBox="0 0 1400 420" role="img" aria-labelledby="title desc">
  <title id="title">Beauty and spa icon banner</title>
  <desc id="desc">A professional banner with simple line icons for beauty and spa services.</desc>
  <rect width="1400" height="420" fill="#f8fafc"/>
  <rect width="1400" height="96" fill="#26364a"/>
  <rect x="1080" width="320" height="96" fill="#a9d4df"/>
  <text x="44" y="64" fill="#ffffff" font-family="Arial, Helvetica, sans-serif" font-size="50" font-weight="700" letter-spacing="1">BEAUTY &amp; SPA</text>
  <text x="1168" y="64" fill="#243447" font-family="Arial, Helvetica, sans-serif" font-size="46" font-weight="700">60 ICONS</text>
  <g fill="none" stroke="#26364a" stroke-linecap="round" stroke-linejoin="round" stroke-width="4">
    <g transform="translate(60 142)">
      <circle cx="32" cy="22" r="16"/><path d="M8 78c5-21 42-21 48 0"/><path d="M22 42h20"/><text x="0" y="118" stroke="none" fill="#64748b" font-family="Arial" font-size="13">skin care</text>
    </g>
    <g transform="translate(170 142)">
      <path d="M30 8c22 22 24 48 0 72C6 56 8 30 30 8Z"/><path d="M30 22v58"/><text x="-2" y="118" stroke="none" fill="#64748b" font-family="Arial" font-size="13">wellness</text>
    </g>
    <g transform="translate(280 142)">
      <rect x="12" y="18" width="48" height="64" rx="10"/><path d="M26 18V8h20v10"/><path d="M24 44h24"/><text x="0" y="118" stroke="none" fill="#64748b" font-family="Arial" font-size="13">serum</text>
    </g>
    <g transform="translate(390 142)">
      <path d="M16 76h56"/><path d="M28 76V28c0-11 16-11 16 0v48"/><path d="M48 76V18c0-11 16-11 16 0v58"/><text x="-4" y="118" stroke="none" fill="#64748b" font-family="Arial" font-size="13">lipstick</text>
    </g>
    <g transform="translate(500 142)">
      <circle cx="42" cy="28" r="20"/><path d="M26 72c14 10 28 10 42 0"/><path d="M18 50c16-8 32-8 48 0"/><text x="0" y="118" stroke="none" fill="#64748b" font-family="Arial" font-size="13">makeup</text>
    </g>
    <g transform="translate(610 142)">
      <path d="M16 32h58"/><path d="M22 32l8 48h30l8-48"/><path d="M32 18h26"/><text x="-4" y="118" stroke="none" fill="#64748b" font-family="Arial" font-size="13">cosmetics</text>
    </g>
    <g transform="translate(720 142)">
      <path d="M22 78c-16-22-8-46 24-70 32 24 40 48 24 70"/><path d="M32 78c8-22 20-36 36-44"/><text x="0" y="118" stroke="none" fill="#64748b" font-family="Arial" font-size="13">spa leaf</text>
    </g>
    <g transform="translate(830 142)">
      <path d="M20 76h58"/><path d="M30 76V30h38v46"/><path d="M38 30V16h22v14"/><path d="M38 52h22"/><text x="-2" y="118" stroke="none" fill="#64748b" font-family="Arial" font-size="13">cream</text>
    </g>
    <g transform="translate(940 142)">
      <circle cx="44" cy="42" r="28"/><path d="M44 14v56"/><path d="M16 42h56"/><text x="-2" y="118" stroke="none" fill="#64748b" font-family="Arial" font-size="13">massage</text>
    </g>
    <g transform="translate(1050 142)">
      <path d="M14 42c20-24 48-24 68 0-20 24-48 24-68 0Z"/><circle cx="48" cy="42" r="12"/><text x="8" y="118" stroke="none" fill="#64748b" font-family="Arial" font-size="13">eyes</text>
    </g>
    <g transform="translate(1160 142)">
      <path d="M20 74h52"/><path d="M28 74l8-48h20l8 48"/><path d="M32 26h28"/><text x="-4" y="118" stroke="none" fill="#64748b" font-family="Arial" font-size="13">treatment</text>
    </g>
    <g transform="translate(1270 142)">
      <path d="M22 78h50"/><path d="M30 78V24h34v54"/><path d="M38 24V12h18v12"/><path d="M38 48h18"/><text x="2" y="118" stroke="none" fill="#64748b" font-family="Arial" font-size="13">lotion</text>
    </g>
    <g transform="translate(60 286)">
      <path d="M18 60c18-32 42-32 60 0"/><path d="M32 60c8-12 20-20 32-24"/><text x="0" y="100" stroke="none" fill="#64748b" font-family="Arial" font-size="13">organic</text>
    </g>
    <g transform="translate(170 286)">
      <path d="M18 62h60"/><path d="M26 62V22h44v40"/><path d="M34 22c4-12 28-12 32 0"/><text x="0" y="100" stroke="none" fill="#64748b" font-family="Arial" font-size="13">bath</text>
    </g>
    <g transform="translate(280 286)">
      <path d="M20 68c12-38 44-38 56 0"/><path d="M34 42h28"/><path d="M34 56h28"/><text x="-2" y="100" stroke="none" fill="#64748b" font-family="Arial" font-size="13">facial</text>
    </g>
    <g transform="translate(390 286)">
      <path d="M18 36h60"/><path d="M30 36v38"/><path d="M66 36v38"/><path d="M42 22h12"/><text x="-2" y="100" stroke="none" fill="#64748b" font-family="Arial" font-size="13">salon</text>
    </g>
    <g transform="translate(500 286)">
      <path d="M22 72h56"/><path d="M30 72V32h40v40"/><path d="M38 32V18h24v14"/><text x="-2" y="100" stroke="none" fill="#64748b" font-family="Arial" font-size="13">perfume</text>
    </g>
    <g transform="translate(610 286)">
      <path d="M16 28h58"/><path d="M22 28l12 44h26l12-44"/><path d="M32 16h28"/><text x="-2" y="100" stroke="none" fill="#64748b" font-family="Arial" font-size="13">mask</text>
    </g>
    <g transform="translate(720 286)">
      <path d="M18 72h60"/><path d="M24 34c20 10 34 10 54 0"/><path d="M34 22h28"/><text x="-2" y="100" stroke="none" fill="#64748b" font-family="Arial" font-size="13">relax</text>
    </g>
    <g transform="translate(830 286)">
      <path d="M20 70l52-52"/><path d="M28 18l44 44"/><path d="M38 28l24 24"/><text x="-2" y="100" stroke="none" fill="#64748b" font-family="Arial" font-size="13">brush</text>
    </g>
    <g transform="translate(940 286)">
      <path d="M16 56c18-28 46-28 64 0"/><path d="M22 56h52"/><path d="M34 72h28"/><text x="-2" y="100" stroke="none" fill="#64748b" font-family="Arial" font-size="13">aroma</text>
    </g>
    <g transform="translate(1050 286)">
      <path d="M24 70h48"/><path d="M32 70V30h32v40"/><path d="M40 30V16h16v14"/><text x="-2" y="100" stroke="none" fill="#64748b" font-family="Arial" font-size="13">cleanser</text>
    </g>
    <g transform="translate(1160 286)">
      <path d="M18 72h56"/><path d="M28 72V22h36v50"/><path d="M36 46h20"/><text x="0" y="100" stroke="none" fill="#64748b" font-family="Arial" font-size="13">oil</text>
    </g>
    <g transform="translate(1270 286)">
      <circle cx="46" cy="46" r="26"/><path d="M28 28l36 36"/><path d="M64 28L28 64"/><text x="-2" y="100" stroke="none" fill="#64748b" font-family="Arial" font-size="13">beauty</text>
    </g>
  </g>
</svg>
